<svg id="Layer_1" data-name="Layer 1" xmlns="http://www.w3.org/2000/svg" viewBox="0 0 500 500" shape-rendering="sharpEdges">
  <defs>
    <style>
	rect {
		shape-rendering: crispEdges;
	}

      .cls-1 {
        fill: #6e7e9b;
      }

      .cls-2 {
        fill: #98a4cb;
      }

      .cls-3 {
        fill: #cad4f3;
      }

      .cls-4 {
        fill: #f7fbff;
      }

      .cls-5 {
        fill: #fff;
      }

      .cls-6 {
        fill: #fafeff;
      }

      .cls-7 {
        fill: #cfe5ed;
      }

      .cls-8 {
        fill: #aac6d0;
      }

      .cls-9 {
        fill: #8aacb8;
      }

      .cls-10 {
        fill: #7494a5;
      }

      .cls-11 {
        fill: #618194;
      }

      .cls-12 {
        fill: #4e6e80;
      }

      .cls-13 {
        fill: #3d5b6b;
      }

      .cls-14 {
        fill: #314a63;
      }

      .cls-15 {
        fill: #293d55;
      }

      .cls-16 {
        fill: #707e9d;
      }

      .cls-17 {
        fill: #94a3cc;
      }

      .cls-18 {
        fill: #c1d2f2;
      }

      .cls-19 {
        fill: #ecf7ff;
      }

      .cls-20 {
        fill: #fcffff;
      }

      .cls-21 {
        fill: #fbfeff;
      }

      .cls-22 {
        fill: #eff9fc;
      }

      .cls-23 {
        fill: #c8e0e9;
      }

      .cls-24 {
        fill: #a6c6d0;
      }

      .cls-25 {
        fill: #8aa9b3;
      }

      .cls-26 {
        fill: #6f8f9e;
      }

      .cls-27 {
        fill: #5c7f8e;
      }

      .cls-28 {
        fill: #4a6c7f;
      }

      .cls-29 {
        fill: #35576a;
      }

      .cls-30 {
        fill: #28455c;
      }

      .cls-31 {
        fill: #27394e;
      }

      .cls-32 {
        fill: #697e9d;
      }

      .cls-33 {
        fill: #889dc5;
      }

      .cls-34 {
        fill: #b5caea;
      }

      .cls-35 {
        fill: #cfe3f9;
      }

      .cls-36 {
        fill: #ddeefb;
      }

      .cls-37 {
        fill: #daecf7;
      }

      .cls-38 {
        fill: #cbe1ed;
      }

      .cls-39 {
        fill: #b2d0dc;
      }

      .cls-40 {
        fill: #9bbcc9;
      }

      .cls-41 {
        fill: #85a3b0;
      }

      .cls-42 {
        fill: #698999;
      }

      .cls-43 {
        fill: #55788a;
      }

      .cls-44 {
        fill: #47657a;
      }

      .cls-45 {
        fill: #375365;
      }

      .cls-46 {
        fill: #274058;
      }

      .cls-47 {
        fill: #22354d;
      }

      .cls-48 {
        fill: #617a97;
      }

      .cls-49 {
        fill: #7c95b7;
      }

      .cls-50 {
        fill: #9fb9d8;
      }

      .cls-51 {
        fill: #abc6e0;
      }

      .cls-52 {
        fill: #b5cee5;
      }

      .cls-53 {
        fill: #afc9dc;
      }

      .cls-54 {
        fill: #9ebace;
      }

      .cls-55 {
        fill: #8cadc0;
      }

      .cls-56 {
        fill: #85a5b5;
      }

      .cls-57 {
        fill: #7395a1;
      }

      .cls-58 {
        fill: #607f90;
      }

      .cls-59 {
        fill: #4f6e82;
      }

      .cls-60 {
        fill: #405c72;
      }

      .cls-61 {
        fill: #314b5e;
      }

      .cls-62 {
        fill: #293b4e;
      }

      .cls-63 {
        fill: #1f314b;
      }

      .cls-64 {
        fill: #57728c;
      }

      .cls-65 {
        fill: #728ba9;
      }

      .cls-66 {
        fill: #87a2bf;
      }

      .cls-67 {
        fill: #8eabc7;
      }

      .cls-68 {
        fill: #94afc9;
      }

      .cls-69 {
        fill: #8ca9c2;
      }

      .cls-70 {
        fill: #7c9cb3;
      }

      .cls-71 {
        fill: #6e8fa3;
      }

      .cls-72 {
        fill: #69889c;
      }

      .cls-73 {
        fill: #668896;
      }

      .cls-74 {
        fill: #5e7b89;
      }

      .cls-75 {
        fill: #4b6579;
      }

      .cls-76 {
        fill: #385066;
      }

      .cls-77 {
        fill: #2e4059;
      }

      .cls-78 {
        fill: #26354c;
      }

      .cls-79 {
        fill: #1d2e45;
      }

      .cls-80 {
        fill: #4b667e;
      }

      .cls-81 {
        fill: #617e95;
      }

      .cls-82 {
        fill: #718fa4;
      }

      .cls-83 {
        fill: #7595ac;
      }

      .cls-84 {
        fill: #7698ae;
      }

      .cls-85 {
        fill: #7094aa;
      }

      .cls-86 {
        fill: #65889e;
      }

      .cls-87 {
        fill: #597c8e;
      }

      .cls-88 {
        fill: #557386;
      }

      .cls-89 {
        fill: #516f80;
      }

      .cls-90 {
        fill: #516e7c;
      }

      .cls-91 {
        fill: #455b71;
      }

      .cls-92 {
        fill: #384961;
      }

      .cls-93 {
        fill: #2d3b52;
      }

      .cls-94 {
        fill: #223147;
      }

      .cls-95 {
        fill: #1d2d41;
      }

      .cls-96 {
        fill: #3f6071;
      }

      .cls-97 {
        fill: #506f83;
      }

      .cls-98 {
        fill: #5a7a8f;
      }

      .cls-99 {
        fill: #648499;
      }

      .cls-100 {
        fill: #608699;
      }

      .cls-101 {
        fill: #5c8296;
      }

      .cls-102 {
        fill: #56778c;
      }

      .cls-103 {
        fill: #4e6e82;
      }

      .cls-104 {
        fill: #446778;
      }

      .cls-105 {
        fill: #3e5b70;
      }

      .cls-106 {
        fill: #3c5468;
      }

      .cls-107 {
        fill: #3d5268;
      }

      .cls-108 {
        fill: #2e485d;
      }

      .cls-109 {
        fill: #23394c;
      }

      .cls-110 {
        fill: #222f46;
      }

      .cls-111 {
        fill: #1c273c;
      }

      .cls-112 {
        fill: #3b5667;
      }

      .cls-113 {
        fill: #456375;
      }

      .cls-114 {
        fill: #506e84;
      }

      .cls-115 {
        fill: #53758b;
      }

      .cls-116 {
        fill: #4f7488;
      }

      .cls-117 {
        fill: #4d7083;
      }

      .cls-118 {
        fill: #4b6a7d;
      }

      .cls-119 {
        fill: #435f74;
      }

      .cls-120 {
        fill: #395869;
      }

      .cls-121 {
        fill: #314c61;
      }

      .cls-122 {
        fill: #2e445c;
      }

      .cls-123 {
        fill: #2d405a;
      }

      .cls-124 {
        fill: #2c3f57;
      }

      .cls-125 {
        fill: #2a344c;
      }

      .cls-126 {
        fill: #222a41;
      }

      .cls-127 {
        fill: #1d253a;
      }

      .cls-128 {
        fill: #364e5e;
      }

      .cls-129 {
        fill: #3b5b6c;
      }

      .cls-130 {
        fill: #406677;
      }

      .cls-131 {
        fill: #43687a;
      }

      .cls-132 {
        fill: #416476;
      }

      .cls-133 {
        fill: #3e5f72;
      }

      .cls-134 {
        fill: #3b5b6d;
      }

      .cls-135 {
        fill: #395166;
      }

      .cls-136 {
        fill: #324a5c;
      }

      .cls-137 {
        fill: #2a4158;
      }

      .cls-138 {
        fill: #263d52;
      }

      .cls-139 {
        fill: #273951;
      }

      .cls-140 {
        fill: #26324a;
      }

      .cls-141 {
        fill: #202e43;
      }

      .cls-142 {
        fill: #23283d;
      }

      .cls-143 {
        fill: #1c2336;
      }

      .cls-144 {
        fill: #2f4a5d;
      }

      .cls-145 {
        fill: #355169;
      }

      .cls-146 {
        fill: #39566d;
      }

      .cls-147 {
        fill: #38576d;
      }

      .cls-148 {
        fill: #365466;
      }

      .cls-149 {
        fill: #344d64;
      }

      .cls-150 {
        fill: #314c62;
      }

      .cls-151 {
        fill: #2a4456;
      }

      .cls-152 {
        fill: #273f51;
      }

      .cls-153 {
        fill: #293c50;
      }

      .cls-154 {
        fill: #272f48;
      }

      .cls-155 {
        fill: #262c44;
      }

      .cls-156 {
        fill: #222b3d;
      }

      .cls-157 {
        fill: #202538;
      }

      .cls-158 {
        fill: #1d2534;
      }

      .cls-159 {
        fill: #30455b;
      }

      .cls-160 {
        fill: #314763;
      }

      .cls-161 {
        fill: #324862;
      }

      .cls-162 {
        fill: #2e4660;
      }

      .cls-163 {
        fill: #2f4456;
      }

      .cls-164 {
        fill: #2e4157;
      }

      .cls-165 {
        fill: #283c56;
      }

      .cls-166 {
        fill: #20394d;
      }

      .cls-167 {
        fill: #23374c;
      }

      .cls-168 {
        fill: #23364c;
      }

      .cls-169 {
        fill: #314254;
      }

      .cls-170 {
        fill: #262d45;
      }

      .cls-171 {
        fill: #20293a;
      }

      .cls-172 {
        fill: #1c2833;
      }

      .cls-173 {
        fill: #1f2337;
      }

      .cls-174 {
        fill: #1c2233;
      }

      .cls-175 {
        fill: #2b4154;
      }

      .cls-176 {
        fill: #2e4259;
      }

      .cls-177 {
        fill: #283f56;
      }

      .cls-178 {
        fill: #283956;
      }

      .cls-179 {
        fill: #21374d;
      }

      .cls-180 {
        fill: #25354d;
      }

      .cls-181 {
        fill: #253347;
      }

      .cls-182 {
        fill: #203345;
      }

      .cls-183 {
        fill: #243147;
      }

      .cls-184 {
        fill: #263042;
      }

      .cls-185 {
        fill: #20293b;
      }

      .cls-186 {
        fill: #21273b;
      }

      .cls-187 {
        fill: #1e2336;
      }

      .cls-188 {
        fill: #1a2133;
      }

      .cls-189 {
        fill: #253b4c;
      }

      .cls-190 {
        fill: #2b3a50;
      }

      .cls-191 {
        fill: #1f3747;
      }

      .cls-192 {
        fill: #1e3042;
      }

      .cls-193 {
        fill: #202e44;
      }

      .cls-194 {
        fill: #202c45;
      }

      .cls-195 {
        fill: #263043;
      }

      .cls-196 {
        fill: #232c3f;
      }

      .cls-197 {
        fill: #212d3c;
      }

      .cls-198 {
        fill: #2e3849;
      }

      .cls-199 {
        fill: #293041;
      }

      .cls-200 {
        fill: #1c2634;
      }

      .cls-201 {
        fill: #1e2332;
      }

      .cls-202 {
        fill: #202332;
      }

      .cls-203 {
        fill: #1a2131;
      }

      .cls-204 {
        fill: #192230;
      }

      .cls-205 {
        fill: #28384c;
      }

      .cls-206 {
        fill: #243547;
      }

      .cls-207 {
        fill: #212e3e;
      }

      .cls-208 {
        fill: #1f2b39;
      }

      .cls-209 {
        fill: #1e2939;
      }

      .cls-210 {
        fill: #1e293d;
      }

      .cls-211 {
        fill: #1e2d37;
      }

      .cls-212 {
        fill: #232b3b;
      }

      .cls-213 {
        fill: #22293b;
      }

      .cls-214 {
        fill: #202b39;
      }

      .cls-215 {
        fill: #1c2735;
      }

      .cls-216 {
        fill: #1f2633;
      }

      .cls-217 {
        fill: #1c232c;
      }

      .cls-218 {
        fill: #1e242f;
      }

      .cls-219 {
        fill: #1a2032;
      }

      .cls-220 {
        fill: #17202f;
      }

      .cls-221 {
        fill: #243143;
      }

      .cls-222 {
        fill: #253041;
      }

      .cls-223 {
        fill: #242d3d;
      }

      .cls-224 {
        fill: #1e293a;
      }

      .cls-225 {
        fill: #1f2a3c;
      }

      .cls-226 {
        fill: #1b2635;
      }

      .cls-227 {
        fill: #1d2936;
      }

      .cls-228 {
        fill: #1f2537;
      }

      .cls-229 {
        fill: #394c54;
      }

      .cls-230 {
        fill: #1f2733;
      }

      .cls-231 {
        fill: #1c2331;
      }

      .cls-232 {
        fill: #1d232e;
      }

      .cls-233 {
        fill: #1c202e;
      }

      .cls-234 {
        fill: #1a2230;
      }

      .cls-235 {
        fill: #181f2c;
      }

      .cls-236 {
        fill: #252e3c;
      }

      .cls-237 {
        fill: #272f3e;
      }

      .cls-238 {
        fill: #20273b;
      }

      .cls-239 {
        fill: #1d2838;
      }

      .cls-240 {
        fill: #1d2733;
      }

      .cls-241 {
        fill: #1b2532;
      }

      .cls-242 {
        fill: #1b2432;
      }

      .cls-243 {
        fill: #1e2235;
      }

      .cls-244 {
        fill: #29313e;
      }

      .cls-245 {
        fill: #2d3e46;
      }

      .cls-246 {
        fill: #1f2534;
      }

      .cls-247 {
        fill: #202433;
      }

      .cls-248 {
        fill: #1e2033;
      }

      .cls-249 {
        fill: #1b1f2d;
      }

      .cls-250 {
        fill: #1a1f2d;
      }

      .cls-251 {
        fill: #1c1e31;
      }
    </style>
  </defs>
  <g>
    <rect class="cls-1" x="468.75" y="468.75" width="31.25" height="31.25" shape-rendering="crispEdges"/>
    <rect class="cls-2" x="437.5" y="468.75" width="31.25" height="31.25"/>
    <rect class="cls-3" x="406.25" y="468.75" width="31.25" height="31.25"/>
    <rect class="cls-4" x="375" y="468.75" width="31.25" height="31.25"/>
    <rect class="cls-5" x="343.75" y="468.75" width="31.25" height="31.25"/>
    <rect class="cls-5" x="312.5" y="468.75" width="31.25" height="31.25"/>
    <rect class="cls-6" x="281.25" y="468.75" width="31.25" height="31.25"/>
    <rect class="cls-7" x="250" y="468.75" width="31.25" height="31.25"/>
    <rect class="cls-8" x="218.75" y="468.75" width="31.25" height="31.25"/>
    <rect class="cls-9" x="187.5" y="468.75" width="31.25" height="31.25"/>
    <rect class="cls-10" x="156.25" y="468.75" width="31.25" height="31.25"/>
    <rect class="cls-11" x="125" y="468.75" width="31.25" height="31.25"/>
    <rect class="cls-12" x="93.75" y="468.75" width="31.25" height="31.25"/>
    <rect class="cls-13" x="62.5" y="468.75" width="31.25" height="31.25"/>
    <rect class="cls-14" x="31.25" y="468.75" width="31.25" height="31.25"/>
    <rect class="cls-15" y="468.75" width="31.25" height="31.25"/>
    <rect class="cls-16" x="468.75" y="437.5" width="31.25" height="31.25"/>
    <rect class="cls-17" x="437.5" y="437.5" width="31.25" height="31.25"/>
    <rect class="cls-18" x="406.25" y="437.5" width="31.25" height="31.25"/>
    <rect class="cls-19" x="375" y="437.5" width="31.25" height="31.25"/>
    <rect class="cls-20" x="343.75" y="437.5" width="31.25" height="31.25"/>
    <rect class="cls-21" x="312.5" y="437.5" width="31.25" height="31.25"/>
    <rect class="cls-22" x="281.25" y="437.5" width="31.25" height="31.25"/>
    <rect class="cls-23" x="250" y="437.5" width="31.25" height="31.25"/>
    <rect class="cls-24" x="218.75" y="437.5" width="31.25" height="31.25"/>
    <rect class="cls-25" x="187.5" y="437.5" width="31.25" height="31.25"/>
    <rect class="cls-26" x="156.25" y="437.5" width="31.25" height="31.25"/>
    <rect class="cls-27" x="125" y="437.5" width="31.25" height="31.25"/>
    <rect class="cls-28" x="93.75" y="437.5" width="31.25" height="31.25"/>
    <rect class="cls-29" x="62.5" y="437.5" width="31.25" height="31.25"/>
    <rect class="cls-30" x="31.25" y="437.5" width="31.25" height="31.25"/>
    <rect class="cls-31" y="437.5" width="31.25" height="31.25"/>
    <rect class="cls-32" x="468.75" y="406.25" width="31.25" height="31.25"/>
    <rect class="cls-33" x="437.5" y="406.25" width="31.25" height="31.25"/>
    <rect class="cls-34" x="406.25" y="406.25" width="31.25" height="31.25"/>
    <rect class="cls-35" x="375" y="406.25" width="31.25" height="31.25"/>
    <rect class="cls-36" x="343.75" y="406.25" width="31.25" height="31.25"/>
    <rect class="cls-37" x="312.5" y="406.25" width="31.25" height="31.25"/>
    <rect class="cls-38" x="281.25" y="406.25" width="31.25" height="31.25"/>
    <rect class="cls-39" x="250" y="406.25" width="31.25" height="31.25"/>
    <rect class="cls-40" x="218.75" y="406.25" width="31.25" height="31.25"/>
    <rect class="cls-41" x="187.5" y="406.25" width="31.25" height="31.25"/>
    <rect class="cls-42" x="156.25" y="406.25" width="31.25" height="31.25"/>
    <rect class="cls-43" x="125" y="406.25" width="31.25" height="31.25"/>
    <rect class="cls-44" x="93.75" y="406.25" width="31.25" height="31.25"/>
    <rect class="cls-45" x="62.5" y="406.25" width="31.25" height="31.25"/>
    <rect class="cls-46" x="31.25" y="406.25" width="31.25" height="31.25"/>
    <rect class="cls-47" y="406.25" width="31.25" height="31.25"/>
    <rect class="cls-48" x="468.75" y="375" width="31.25" height="31.25"/>
    <rect class="cls-49" x="437.5" y="375" width="31.25" height="31.25"/>
    <rect class="cls-50" x="406.25" y="375" width="31.25" height="31.25"/>
    <rect class="cls-51" x="375" y="375" width="31.25" height="31.25"/>
    <rect class="cls-52" x="343.75" y="375" width="31.25" height="31.25"/>
    <rect class="cls-53" x="312.5" y="375" width="31.25" height="31.25"/>
    <rect class="cls-54" x="281.25" y="375" width="31.25" height="31.25"/>
    <rect class="cls-55" x="250" y="375" width="31.25" height="31.25"/>
    <rect class="cls-56" x="218.75" y="375" width="31.25" height="31.25"/>
    <rect class="cls-57" x="187.5" y="375" width="31.25" height="31.25"/>
    <rect class="cls-58" x="156.25" y="375" width="31.25" height="31.25"/>
    <rect class="cls-59" x="125" y="375" width="31.25" height="31.25"/>
    <rect class="cls-60" x="93.75" y="375" width="31.25" height="31.25"/>
    <rect class="cls-61" x="62.5" y="375" width="31.25" height="31.25"/>
    <rect class="cls-62" x="31.25" y="375" width="31.25" height="31.25"/>
    <rect class="cls-63" y="375" width="31.25" height="31.25"/>
    <rect class="cls-64" x="468.75" y="343.75" width="31.25" height="31.25"/>
    <rect class="cls-65" x="437.5" y="343.75" width="31.25" height="31.25"/>
    <rect class="cls-66" x="406.25" y="343.75" width="31.25" height="31.25"/>
    <rect class="cls-67" x="375" y="343.75" width="31.25" height="31.25"/>
    <rect class="cls-68" x="343.75" y="343.75" width="31.25" height="31.25"/>
    <rect class="cls-69" x="312.5" y="343.75" width="31.25" height="31.25"/>
    <rect class="cls-70" x="281.25" y="343.75" width="31.25" height="31.25"/>
    <rect class="cls-71" x="250" y="343.75" width="31.25" height="31.25"/>
    <rect class="cls-72" x="218.75" y="343.75" width="31.25" height="31.25"/>
    <rect class="cls-73" x="187.5" y="343.75" width="31.25" height="31.25"/>
    <rect class="cls-74" x="156.25" y="343.75" width="31.25" height="31.25"/>
    <rect class="cls-75" x="125" y="343.75" width="31.25" height="31.25"/>
    <rect class="cls-76" x="93.75" y="343.75" width="31.25" height="31.25"/>
    <rect class="cls-77" x="62.5" y="343.75" width="31.25" height="31.25"/>
    <rect class="cls-78" x="31.25" y="343.75" width="31.25" height="31.25"/>
    <rect class="cls-79" y="343.75" width="31.25" height="31.25"/>
    <rect class="cls-80" x="468.75" y="312.5" width="31.25" height="31.25"/>
    <rect class="cls-81" x="437.5" y="312.5" width="31.25" height="31.25"/>
    <rect class="cls-82" x="406.25" y="312.5" width="31.25" height="31.25"/>
    <rect class="cls-83" x="375" y="312.5" width="31.25" height="31.25"/>
    <rect class="cls-84" x="343.75" y="312.5" width="31.25" height="31.25"/>
    <rect class="cls-85" x="312.5" y="312.5" width="31.25" height="31.25"/>
    <rect class="cls-86" x="281.25" y="312.5" width="31.25" height="31.25"/>
    <rect class="cls-87" x="250" y="312.5" width="31.25" height="31.25"/>
    <rect class="cls-88" x="218.75" y="312.5" width="31.25" height="31.25"/>
    <rect class="cls-89" x="187.5" y="312.5" width="31.25" height="31.25"/>
    <rect class="cls-90" x="156.25" y="312.5" width="31.25" height="31.25"/>
    <rect class="cls-91" x="125" y="312.5" width="31.25" height="31.25"/>
    <rect class="cls-92" x="93.75" y="312.5" width="31.25" height="31.25"/>
    <rect class="cls-93" x="62.5" y="312.5" width="31.25" height="31.25"/>
    <rect class="cls-94" x="31.25" y="312.5" width="31.25" height="31.25"/>
    <rect class="cls-95" y="312.5" width="31.25" height="31.25"/>
    <rect class="cls-96" x="468.75" y="281.25" width="31.25" height="31.25"/>
    <rect class="cls-97" x="437.5" y="281.25" width="31.25" height="31.25"/>
    <rect class="cls-98" x="406.25" y="281.25" width="31.25" height="31.25"/>
    <rect class="cls-99" x="375" y="281.25" width="31.25" height="31.25"/>
    <rect class="cls-100" x="343.75" y="281.25" width="31.25" height="31.25"/>
    <rect class="cls-101" x="312.5" y="281.25" width="31.25" height="31.25"/>
    <rect class="cls-102" x="281.25" y="281.25" width="31.25" height="31.25"/>
    <rect class="cls-103" x="250" y="281.25" width="31.25" height="31.25"/>
    <rect class="cls-104" x="218.75" y="281.25" width="31.25" height="31.25"/>
    <rect class="cls-105" x="187.5" y="281.25" width="31.25" height="31.25"/>
    <rect class="cls-106" x="156.25" y="281.25" width="31.25" height="31.25"/>
    <rect class="cls-107" x="125" y="281.25" width="31.25" height="31.25"/>
    <rect class="cls-108" x="93.75" y="281.25" width="31.25" height="31.25"/>
    <rect class="cls-109" x="62.5" y="281.25" width="31.25" height="31.25"/>
    <rect class="cls-110" x="31.25" y="281.25" width="31.25" height="31.25"/>
    <rect class="cls-111" y="281.25" width="31.25" height="31.25"/>
    <rect class="cls-112" x="468.75" y="250" width="31.25" height="31.25"/>
    <rect class="cls-113" x="437.5" y="250" width="31.25" height="31.25"/>
    <rect class="cls-114" x="406.25" y="250" width="31.25" height="31.25"/>
    <rect class="cls-115" x="375" y="250" width="31.25" height="31.25"/>
    <rect class="cls-116" x="343.75" y="250" width="31.25" height="31.25"/>
    <rect class="cls-117" x="312.5" y="250" width="31.25" height="31.25"/>
    <rect class="cls-118" x="281.25" y="250" width="31.25" height="31.25"/>
    <rect class="cls-119" x="250" y="250" width="31.25" height="31.25"/>
    <rect class="cls-120" x="218.75" y="250" width="31.25" height="31.25"/>
    <rect class="cls-121" x="187.5" y="250" width="31.25" height="31.25"/>
    <rect class="cls-122" x="156.25" y="250" width="31.25" height="31.25"/>
    <rect class="cls-123" x="125" y="250" width="31.25" height="31.25"/>
    <rect class="cls-124" x="93.75" y="250" width="31.25" height="31.25"/>
    <rect class="cls-125" x="62.5" y="250" width="31.25" height="31.25"/>
    <rect class="cls-126" x="31.25" y="250" width="31.25" height="31.25"/>
    <rect class="cls-127" y="250" width="31.25" height="31.25"/>
    <rect class="cls-128" x="468.75" y="218.75" width="31.25" height="31.25"/>
    <rect class="cls-129" x="437.5" y="218.75" width="31.25" height="31.25"/>
    <rect class="cls-130" x="406.25" y="218.75" width="31.25" height="31.25"/>
    <rect class="cls-131" x="375" y="218.75" width="31.25" height="31.25"/>
    <rect class="cls-132" x="343.75" y="218.75" width="31.25" height="31.25"/>
    <rect class="cls-133" x="312.5" y="218.75" width="31.25" height="31.25"/>
    <rect class="cls-134" x="281.25" y="218.75" width="31.25" height="31.25"/>
    <rect class="cls-135" x="250" y="218.75" width="31.25" height="31.25"/>
    <rect class="cls-136" x="218.75" y="218.75" width="31.25" height="31.25"/>
    <rect class="cls-137" x="187.5" y="218.75" width="31.25" height="31.25"/>
    <rect class="cls-138" x="156.25" y="218.75" width="31.25" height="31.25"/>
    <rect class="cls-139" x="125" y="218.75" width="31.25" height="31.25"/>
    <rect class="cls-140" x="93.75" y="218.75" width="31.25" height="31.25"/>
    <rect class="cls-141" x="62.5" y="218.75" width="31.25" height="31.25"/>
    <rect class="cls-142" x="31.25" y="218.75" width="31.25" height="31.25"/>
    <rect class="cls-143" y="218.75" width="31.25" height="31.25"/>
    <rect class="cls-144" x="468.75" y="187.5" width="31.25" height="31.25"/>
    <rect class="cls-145" x="437.5" y="187.5" width="31.25" height="31.25"/>
    <rect class="cls-146" x="406.25" y="187.5" width="31.25" height="31.25"/>
    <rect class="cls-147" x="375" y="187.5" width="31.25" height="31.25"/>
    <rect class="cls-148" x="343.75" y="187.5" width="31.25" height="31.25"/>
    <rect class="cls-149" x="312.5" y="187.5" width="31.25" height="31.25"/>
    <rect class="cls-150" x="281.25" y="187.5" width="31.25" height="31.25"/>
    <rect class="cls-151" x="250" y="187.5" width="31.25" height="31.25"/>
    <rect class="cls-152" x="218.75" y="187.5" width="31.25" height="31.25"/>
    <rect class="cls-153" x="187.5" y="187.5" width="31.25" height="31.25"/>
    <rect class="cls-31" x="156.25" y="187.5" width="31.25" height="31.25"/>
    <rect class="cls-154" x="125" y="187.5" width="31.25" height="31.25"/>
    <rect class="cls-155" x="93.75" y="187.5" width="31.25" height="31.25"/>
    <rect class="cls-156" x="62.5" y="187.5" width="31.25" height="31.25"/>
    <rect class="cls-157" x="31.25" y="187.5" width="31.25" height="31.25"/>
    <rect class="cls-158" y="187.5" width="31.25" height="31.25"/>
    <rect class="cls-159" x="468.75" y="156.25" width="31.25" height="31.25"/>
    <rect class="cls-160" x="437.5" y="156.25" width="31.25" height="31.25"/>
    <rect class="cls-161" x="406.25" y="156.25" width="31.25" height="31.25"/>
    <rect class="cls-162" x="375" y="156.25" width="31.25" height="31.25"/>
    <rect class="cls-163" x="343.75" y="156.25" width="31.25" height="31.25"/>
    <rect class="cls-164" x="312.5" y="156.25" width="31.25" height="31.25"/>
    <rect class="cls-165" x="281.25" y="156.25" width="31.25" height="31.25"/>
    <rect class="cls-166" x="250" y="156.25" width="31.25" height="31.25"/>
    <rect class="cls-167" x="218.75" y="156.25" width="31.25" height="31.25"/>
    <rect class="cls-168" x="187.5" y="156.25" width="31.25" height="31.25"/>
    <rect class="cls-169" x="156.25" y="156.25" width="31.25" height="31.25"/>
    <rect class="cls-170" x="125" y="156.25" width="31.25" height="31.25"/>
    <rect class="cls-171" x="93.75" y="156.25" width="31.25" height="31.25"/>
    <rect class="cls-172" x="62.5" y="156.25" width="31.25" height="31.25"/>
    <rect class="cls-173" x="31.25" y="156.25" width="31.25" height="31.25"/>
    <rect class="cls-174" y="156.25" width="31.25" height="31.25"/>
    <rect class="cls-175" x="468.75" y="125" width="31.25" height="31.25"/>
    <rect class="cls-176" x="437.5" y="125" width="31.25" height="31.25"/>
    <rect class="cls-177" x="406.25" y="125" width="31.25" height="31.25"/>
    <rect class="cls-178" x="375" y="125" width="31.25" height="31.25"/>
    <rect class="cls-179" x="343.75" y="125" width="31.25" height="31.25"/>
    <rect class="cls-168" x="312.5" y="125" width="31.25" height="31.25"/>
    <rect class="cls-180" x="281.25" y="125" width="31.25" height="31.25"/>
    <rect class="cls-181" x="250" y="125" width="31.25" height="31.25"/>
    <rect class="cls-182" x="218.75" y="125" width="31.25" height="31.25"/>
    <rect class="cls-183" x="187.5" y="125" width="31.25" height="31.25"/>
    <rect class="cls-184" x="156.25" y="125" width="31.25" height="31.25"/>
    <rect class="cls-185" x="125" y="125" width="31.25" height="31.25"/>
    <rect class="cls-186" x="93.75" y="125" width="31.25" height="31.25"/>
    <rect class="cls-187" x="62.5" y="125" width="31.25" height="31.25"/>
    <rect class="cls-188" x="31.25" y="125" width="31.25" height="31.25"/>
    <rect class="cls-188" y="125" width="31.25" height="31.25"/>
    <rect class="cls-189" x="468.75" y="93.75" width="31.25" height="31.25"/>
    <rect class="cls-190" x="437.5" y="93.75" width="31.25" height="31.25"/>
    <rect class="cls-191" x="406.25" y="93.75" width="31.25" height="31.25"/>
    <rect class="cls-192" x="375" y="93.75" width="31.25" height="31.25"/>
    <rect class="cls-193" x="343.75" y="93.75" width="31.25" height="31.25"/>
    <rect class="cls-194" x="312.5" y="93.75" width="31.25" height="31.25"/>
    <rect class="cls-195" x="281.25" y="93.75" width="31.25" height="31.25"/>
    <rect class="cls-196" x="250" y="93.75" width="31.25" height="31.25"/>
    <rect class="cls-197" x="218.75" y="93.75" width="31.25" height="31.25"/>
    <rect class="cls-198" x="187.5" y="93.75" width="31.25" height="31.25"/>
    <rect class="cls-199" x="156.25" y="93.75" width="31.25" height="31.25"/>
    <rect class="cls-200" x="125" y="93.75" width="31.25" height="31.25"/>
    <rect class="cls-201" x="93.75" y="93.75" width="31.25" height="31.25"/>
    <rect class="cls-202" x="62.5" y="93.75" width="31.25" height="31.25"/>
    <rect class="cls-203" x="31.25" y="93.75" width="31.25" height="31.25"/>
    <rect class="cls-204" y="93.75" width="31.25" height="31.25"/>
    <rect class="cls-205" x="468.75" y="62.5" width="31.25" height="31.25"/>
    <rect class="cls-206" x="437.5" y="62.5" width="31.25" height="31.25"/>
    <rect class="cls-207" x="406.25" y="62.5" width="31.25" height="31.25"/>
    <rect class="cls-208" x="375" y="62.5" width="31.25" height="31.25"/>
    <rect class="cls-209" x="343.75" y="62.5" width="31.25" height="31.25"/>
    <rect class="cls-210" x="312.5" y="62.5" width="31.25" height="31.25"/>
    <rect class="cls-211" x="281.25" y="62.5" width="31.25" height="31.25"/>
    <rect class="cls-212" x="250" y="62.5" width="31.25" height="31.25"/>
    <rect class="cls-213" x="218.75" y="62.5" width="31.25" height="31.25"/>
    <rect class="cls-214" x="187.5" y="62.5" width="31.25" height="31.25"/>
    <rect class="cls-215" x="156.25" y="62.5" width="31.25" height="31.25"/>
    <rect class="cls-216" x="125" y="62.5" width="31.25" height="31.25"/>
    <rect class="cls-217" x="93.75" y="62.5" width="31.25" height="31.25"/>
    <rect class="cls-218" x="62.5" y="62.5" width="31.25" height="31.25"/>
    <rect class="cls-219" x="31.25" y="62.5" width="31.25" height="31.25"/>
    <rect class="cls-220" y="62.5" width="31.25" height="31.25"/>
    <rect class="cls-221" x="468.75" y="31.25" width="31.25" height="31.25"/>
    <rect class="cls-222" x="437.5" y="31.25" width="31.25" height="31.25"/>
    <rect class="cls-223" x="406.25" y="31.25" width="31.25" height="31.25"/>
    <rect class="cls-224" x="375" y="31.25" width="31.25" height="31.25"/>
    <rect class="cls-225" x="343.75" y="31.25" width="31.25" height="31.25"/>
    <rect class="cls-226" x="312.5" y="31.25" width="31.25" height="31.25"/>
    <rect class="cls-227" x="281.25" y="31.25" width="31.25" height="31.25"/>
    <rect class="cls-228" x="250" y="31.25" width="31.25" height="31.25"/>
    <rect class="cls-195" x="218.75" y="31.25" width="31.25" height="31.25"/>
    <rect class="cls-229" x="187.5" y="31.25" width="31.25" height="31.25"/>
    <rect class="cls-230" x="156.25" y="31.25" width="31.25" height="31.25"/>
    <rect class="cls-231" x="125" y="31.25" width="31.25" height="31.25"/>
    <rect class="cls-232" x="93.75" y="31.25" width="31.25" height="31.25"/>
    <rect class="cls-233" x="62.5" y="31.25" width="31.25" height="31.25"/>
    <rect class="cls-234" x="31.25" y="31.25" width="31.25" height="31.25"/>
    <rect class="cls-235" y="31.25" width="31.25" height="31.25"/>
    <rect class="cls-236" x="468.75" width="31.25" height="31.25"/>
    <rect class="cls-237" x="437.5" width="31.25" height="31.25"/>
    <rect class="cls-238" x="406.25" width="31.25" height="31.25"/>
    <rect class="cls-239" x="375" width="31.25" height="31.25"/>
    <rect class="cls-240" x="343.75" width="31.25" height="31.25"/>
    <rect class="cls-241" x="312.5" width="31.25" height="31.25"/>
    <rect class="cls-242" x="281.25" width="31.25" height="31.25"/>
    <rect class="cls-243" x="250" width="31.25" height="31.25"/>
    <rect class="cls-244" x="218.75" width="31.25" height="31.25"/>
    <rect class="cls-245" x="187.5" width="31.25" height="31.25"/>
    <rect class="cls-246" x="156.25" width="31.25" height="31.25"/>
    <rect class="cls-247" x="125" width="31.25" height="31.25"/>
    <rect class="cls-248" x="93.75" width="31.25" height="31.25"/>
    <rect class="cls-249" x="62.5" width="31.25" height="31.25"/>
    <rect class="cls-250" x="31.25" width="31.25" height="31.25"/>
    <rect class="cls-251" width="31.25" height="31.25"/>
  </g>
</svg>