<svg id="Layer_1" data-name="Layer 1" xmlns="http://www.w3.org/2000/svg" viewBox="0 0 1920 1080"><defs><style>.cls-1{fill:#fff;}</style></defs><title>Artboard 1 copy</title><path class="cls-1" d="M-87.55,331.37,491.05,307.7,779.2,295.92,924.27,290c45.35-1.85,91.48-1.57,136.5-7.76,76.8-10.55,146.43-55.22,173.53-130.36-.8,2.2-7.81,2.12-9,4.3l-38.81,69.5c-6.86,12.28-32.24,44.36-13.39,56.31,14.05,8.91,38.28-.48,51.79-6.55,13.34-6,26.05-12.9,37-22.82a101.78,101.78,0,0,0,19.62-24.43c2.62-4.51,10.53-14.75.54-14-7.48.56-16.64,5.6-23.14,9.25C1245.41,231,1241,245.64,1239.44,260c-.8,7.27-2.53,16.68,4.23,21.68,5.73,4.24,12.93,2,18.83-.57,13.26-5.79,23.6-13.29,32.1-25.26,11.93-16.8,20.77-40,38.83-51.23l-5.69,2.76,3-1.4-3.34,1.53c14.69-5.2,28.94-5.69,41.53-15.8l-9,4.3-19.49,38.84c-4.09,8.15-15.94,23.71-11.5,33.3,6.73,14.52,33.34-1.13,43.1-5.83,36.65-17.65,65.78-46.85,81.66-84.5-1,2.26-8,2-9,4.3a421.88,421.88,0,0,0-21.23,57.53c-4.26,15-6.49,38.4-22.26,46.17l8.42-4c-5.33,1.73-13,3.44-17.55-.43-3.32-2.82-5.51-9.59-6.39-13.54-3.1-14,4-27.25,16-34.3l-5.69,2.76,2.33-1.1-3.34,1.53c14.76-5.33,23.82,6.53,37.59,9.36,12.46,2.56,25.24-.5,36.65-5.6,8.26-3.69,50.35-26.66,26.66-34-6.32-2-14.13,1.82-19.55,5.22-11.25,7-17.37,21.34-19.34,34-1.27,8.19-2.38,28.65,6.71,34.06,5.61,3.34,15.56-3.17,20.57-5.75,10.24-5.29,17.66-12.62,24.57-21.62,12.08-15.74,23.26-32.18,34.2-48.72l-9,4.3a221,221,0,0,1-24.07,73.23c1.25-2.34,7.66-1.91,9-4.3l44.6-77.88-9,4.3c8.67,12.4,2.11,28.56-1.36,41.68-3.27,12.38-5.71,27.58,10.91,30.09,12.59,1.9,26.62-6.28,37.69-11.68a131.42,131.42,0,0,0,28.85-18.92c6.25-5.43,12.23-11,15-19,1.6-4.67,3.15-12.75,1.4-17.6-1.38-3.8-2.2-3.66-6.63-2.57-9.65,2.37-20.94,8.82-27.62,15.87-9.54,10.07-17.68,32.51-2.66,41.31,10.95,6.42,28.08,5.42,39.68,1.28,33.14-11.84,48.39-42.72,54.63-75.74l-9,4.3c-2.66,16.93-5.68,33.81-9.19,50.59-3.08,14.76-5.71,30.62-20.49,38.05l8.42-4c-8.07,3.1-14.48,3.83-21.57-1.6-7.71-5.91-8.3-14.9-4.14-23.16,2.63-5.23,8-12.78,13.6-15.38,8.12-3.79,20.13-2.19,28.88-3.2,34.21-3.95,67.82-25.83,84-56.13l-9,4.3-24.06,54.07L1730.06,262c-3.17,7.13-5.87,18.81-13.47,22.6l8.42-4c-11.87,2.79-17.32-13.86-17.36-23-.05-12.46,5.35-26.21,12.62-36.16,2.78-3.8,7.32-9.08,11.22-10.58,6.36-2.45,14.44-.11,20.39,2.29s11.56,5.79,17.56,8.22c28.11,11.37,59.75,14.44,89.7,16.55,34.78,2.44,69.71,2.37,104.54,1.41,3.08-.09,6-4.21,9-4.3-40.47,1.12-81.14,1.14-121.47-2.83-21.5-2.11-43.3-5.18-63.9-11.91a127.43,127.43,0,0,1-16.14-6.46c-14.56-7.07-25.66-10.35-40.5-3.25-13.22,6.33-22,16.08-27.4,29.88-3.06,7.83-5.47,16.88-4.39,25.33.87,6.78,4.91,18.52,13.13,19.54,3.9.48,8.34-2.32,11.65-4.07,8-4.19,10.17-11.86,13.72-19.85l37.34-83.91c-1,2.3-7.79,2-9,4.3a99.41,99.41,0,0,1-32.17,35.95c-15.82,10.66-33.08,11.13-51.34,12.93-17.17,1.69-37.22,11.07-44,28.05-4.22,10.58,1.92,24,14.24,25.39,7.37.84,17.36-4.57,23.7-8.21,12.68-7.3,15.49-21.1,18.33-34.42,3.79-17.72,7-35.56,9.79-53.46-.29,1.83-8.66,2.35-9,4.3-2.78,14.69-7.11,29.17-14.52,42.24-5.39,9.49-13.7,21.64-24.33,25.67-9.4,3.56-22.88,3.22-32.3.13-13.45-4.4-15.25-16.34-11-28.68a41.49,41.49,0,0,1,6.67-12.6c2.6-3.24,11.82-13.19,16.83-10,4,2.52,1.37,15.53.39,19-1.74,6.18-5.23,11.09-9.74,15.57A114.27,114.27,0,0,1,1600,264c-9.69,5-29.33,12.62-38.05,1.29-6.24-8.11-.56-21.8,1.77-30.34,3.16-11.58,7.26-25.12-.24-35.85,0,0-8.65,3.63-9,4.3l-44.6,77.88,9-4.3A221,221,0,0,0,1543,203.73c-.24,1.64-8,2.7-9,4.3-10.3,15.57-20.82,31-32.07,45.93-5.37,7.11-15.62,23-25.69,22.55-11.54-.56-11.38-23.39-10.68-31,1.31-14.46,7.57-29.54,19.81-38l-8.86,4.23c10.72-4.76,22.11,3.25,14,13.45-7.48,9.46-19.21,15-30.88,16.88-14,2.24-24.38-2-36.55-8.27-8.44-4.31-15.44-3-23.6.81-7.41,3.5-14.11,7.16-18.73,14.35-6.45,10-7.05,26.31,1.4,35.68,10.13,11.24,33.83-4.59,39.24-14.61,6.9-12.75,9-28.17,13.18-41.93a428.15,428.15,0,0,1,19.08-50.22l-9,4.3c-14.11,33.47-39.33,62-71.39,79.28-10.94,5.91-44.12,16.31-34.55-9,7.87-20.8,20.25-40.82,30.23-60.71-1,2-7.19,2.82-9,4.3a30.5,30.5,0,0,1-5.91,4.21l5.69-2.76-3,1.4,3.34-1.53c-11.34,4-22.58,4.86-33.41,10.48-11.8,6.13-18.85,17.69-25.79,28.62-8,12.61-15.28,27.06-26.71,37-5.51,4.78-13.37,8.92-20.48,4.67s-6.07-12.7-5.43-19.63c1.17-12.69,3.81-26.43,13.83-35.3.79-.7,8.66-6.57,2.59-2.46-4.93,3.34-.35.25,1.89-.53s4.89-1.84,7.23-1.8c7.79.16,2.76,6.83.31,11.1-9.51,16.56-21.93,30.45-38.51,40.26-12.19,7.21-42.43,18.14-55.47,6.43-7.34-6.59-4.6-17.07-1.05-24.86,5-10.9,11.6-21.23,17.44-31.69l37.84-67.76-9,4.3A191.23,191.23,0,0,1,1165.63,240c-33.51,27.08-74.13,36.51-116.26,40.21-44,3.86-88.32,4.36-132.39,6.17L778,292,231,314.41-78.53,327.07c-3.09.13-6,4.17-9,4.3Z"/><path class="cls-1" d="M1140.33,188.61q35.31-3,70.73-3.55c21.53-.39,43.33-.9,63.64-8.84,2.79-1.09,6.5-3.31,8.7-4.17-20.76,8.11-43.16,8.34-65.13,8.75q-34.51.64-68.91,3.52c-3.13.26-5.95,4-9,4.3Z"/><path class="cls-1" d="M403.59,557.3c-3.12-.22-6.34,1.49-9,3-3.94,2.26-7.71,10-4.7,14.29,2.4,3.41,7.08,1.47,10,.05,4.14-2,7.54-4.18,9.59-8.51-.54,1.15-4,1-4.51,2.15a15.4,15.4,0,0,1-6.47,7l1.11-.55-.87.42,3.41-1.6c-3.51,1.36-8.16,1-8.56-3.59s1.49-9.36,5.44-11.78l-2.85,1.38.85-.4-1.67.77a8.83,8.83,0,0,1,3.67-.49c1.47.1,3.09-2.25,4.51-2.15Z"/><path class="cls-1" d="M416.64,541c-8.64-4-19.11,3.25-24.45,9.67-7.77,9.35-19.62,26.67-12.23,39.18,5.52,9.34,16,4.05,23.08-.2,11-6.63,21.15-16.66,25-29.2.94-3,2.19-7,1.14-10.16-1.33-3.94-5.69-3.63-9.15-3.12-4.57.68-8.59,2.78-12.68,4.8-.85.42.75-.32.82-.35,1-.47,2.06-1,3.08-1.48,3.89-1.93,12.36-2.38,13.56,2.88,1.09,4.73-1.48,10.94-3.5,15.11a55.27,55.27,0,0,1-22.86,23.68,10.34,10.34,0,0,1-13.71-3.52c-3.47-5.16-2.59-12.15-.92-17.77a55.06,55.06,0,0,1,7.84-15.42c3.71-5.35,7.82-11.07,13.8-14l-4.21,2c3.77-1.39,7.09-1.61,10.79.09,1,.46,3.57-2.58,4.51-2.15Z"/><path class="cls-1" d="M505.53,528.6c-.15-.55-4.17,1.35-4.63,1.77-3.1,2.86-2,11.52-1.78,15.48.63,12,3.38,24.91-2.32,36.18-2.17,4.28-5.52,9.08-10.92,7.62-6-1.63-6.05-8.92-5.91-14a56,56,0,0,1,3.92-19.12,36.55,36.55,0,0,1,4.28-8,23.75,23.75,0,0,1,2.93-3.37c.3-.28,3.23-2.34,1.76-1.75,1.39-.56,3.25-1.64,4.35-2.08-9.16,3.71-15,9.45-18.47,19-2.8,7.81-8.64,37,8.58,31a24.38,24.38,0,0,0,16.44-18.39c1.58-6.86,1.14-13.88.54-20.82-.35-4-.76-8.08-.8-12.13,0-3-.5-9.17,1.43-11.51l-4.51,2.15q.59-.45.59.13c-.07-.25,4.6-1.82,4.51-2.15Z"/><path class="cls-1" d="M515.41,564.74c-1.28.81-3.61,1.49-1,1.31a14,14,0,0,0,2.82-.78,38,38,0,0,0,3.5-1.54c3.37-1.6,6.55-3.21,9.13-6,2.26-2.47,6.77-10.23.34-7.67a33,33,0,0,0-6.79,3.72c-5,3.55-9.47,8.38-11,14.47-1.21,4.76-.8,13.48,4.86,15.52,6.35,2.3,15.89-8.7,19.35-11.86-1.17,1.07-3.33,1.07-4.51,2.15-3.58,3.28-7.17,7-11.29,9.55l4.51-2.15c-7.9,2.88-9.63-9.6-8.57-14.6,1.62-7.6,7.48-12.94,13.78-16.94l-4.2,2c6-2.72.72,6-.51,7.4a14.52,14.52,0,0,1-4.58,3.81,6.46,6.46,0,0,1-3,.88q-1.36.35-.1-.27l1.82-1.15c-1.4.88-3.11,1.26-4.51,2.15Z"/><path class="cls-1" d="M541.82,555.72,541.07,579c0-.78,4.39-1.29,4.51-2.15,1.56-10.53,6.45-23.29,16.58-28.34l-4.21,2a14.06,14.06,0,0,1,10.56-.27c1.11.41,3.45-2.54,4.51-2.15-5.76-2.14-11.43.2-16.47,3.11-9.38,5.42-14,17.64-15.48,27.8l4.51-2.15.75-23.25c0,.73-4.49,1.35-4.51,2.15Z"/><path class="cls-1" d="M569.62,565.38c-.6,3-.81,3.07,2.21,2.07.94-.31,1.88-.67,2.79-1,1.39-.58,2.75-1.24,4.11-1.89a47.74,47.74,0,0,0,11.3-7.14,40.19,40.19,0,0,0,6.67-7.6,37.61,37.61,0,0,0,2.54-4.38c1.19-2.41.54-2.29-2-2-3.27.32-6.68,2.17-9.54,3.69-10.45,5.55-21.94,21.22-18.79,33.55,1.56,6.11,6.14,3.49,10.11,1.58a41.16,41.16,0,0,0,12.59-8.93c-1.05,1.12-3.44,1-4.51,2.15-2.22,2.36-8.78,9.46-12.21,6.3-3.23-3-2.06-10.13-1-13.77,2.67-8.79,10.1-19,18.48-23.11l-3.86,1.82c1.58-.61,3.88-1.59,5.63-1.2,2.1.47,1.24.82.25,2.75a38.81,38.81,0,0,1-5.79,8.28,43.22,43.22,0,0,1-7.69,6.57,16.79,16.79,0,0,1-4.57,2.27c-3,1-2.8.92-2.21-2.07-.19.95-4.31,1.14-4.51,2.15Z"/><path class="cls-1" d="M605.35,552.77l-2.24,23.78c.08-.86,4.3-1.22,4.51-2.15a62.2,62.2,0,0,1,16.63-30.12l-4.51,2.15-1.1,15.26c.05-.75,4.06-1.38,4.51-2.15a227.23,227.23,0,0,1,12.62-19.1l-4.51,2.15c3.49,1.58,2.14,8.82,1.92,11.93-.26,3.71-2.63,10.48-.18,13.82s7.27.83,9.91-1.22c-1.28,1-3.22,1.14-4.51,2.15l-.87.67,4.51-2.15c-11.53,2.62.62-24.24-6.26-27.35-.39-.18-4.23,1.76-4.51,2.15a227.23,227.23,0,0,0-12.62,19.1l4.51-2.15,1.1-15.26c0,.59-4,1.61-4.51,2.15a62.2,62.2,0,0,0-16.63,30.12l4.51-2.15,2.24-23.78c-.08.82-4.43,1.27-4.51,2.15Z"/><path class="cls-1" d="M656.8,541c-2.07-.42-5.77,1.52-7.18,3-2.45,2.62-2.9,8-3.26,11.45a44.63,44.63,0,0,0,.73,13.44c0-.18,4.11-1.88,4.51-2.15a67.31,67.31,0,0,0,25-29.61c-.49,1.11-3.75,1.11-4.51,2.15-8.51,11.55-11.27,25.73-12,39.8-.66,13.26,1.2,30.12-12.12,37.95l1.65-.81-1.21.58,2.87-1.34c-.4.15-2.2,1-2.58.82s-.19-3.5-.18-4.08a38.53,38.53,0,0,1,.74-7.3,40.37,40.37,0,0,1,5.52-13.52c-.74,1.17-3.76.94-4.51,2.15a40,40,0,0,0-5.92,15.94c-.22,1.65-1.16,6.65-.23,8.14.69,1.1,1.25.54,2.64,0,.23-.09.44-.2.67-.3,6.39-2.77,11.42-6.47,14.19-13.19,4.5-10.91,2.33-23.86,3.65-35.38,1.3-11.33,4.48-22.34,11.31-31.62l-4.51,2.15a67.31,67.31,0,0,1-25,29.61l4.51-2.15a44.63,44.63,0,0,1-.73-13.44c.4-3.81.9-10.48,4.72-12.52l-4.44,2.1,1.13.23c1.32.27,3.23-2.41,4.51-2.15Z"/><path class="cls-1" d="M750.28,528.41c-4-8.65-15.28-4-21.16.05-5.36,3.73-8.82,10.44-10.5,16.62a15.63,15.63,0,0,0-.65,5.62c.24,2.51.62,2.55,3.07,2.27a21.9,21.9,0,0,0,6.52-2.08c7.4-3.37,18.72-13.21,25.72-4.14,8.42,10.9-1.64,27.25-11.5,33l3.85-1.85c-4.57,2.11-10.78,1.92-13.64-2.84-2.71-4.52-.65-9.47,3.6-12l-4.51,2.15a8.12,8.12,0,0,1,2.69-.77c1.59-.31,2.94-1.84,4.51-2.15-3.06.6-7.24,2.32-9.51,4.53-6.1,5.93-.44,14.76,7.13,14.54,11.11-.32,21.63-11.87,24-21.8,1.51-6.23.66-15.58-6.41-18-5.16-1.79-10.23.74-14.79,3-2,1-3.82,2-5.71,3.15-2.24,1.3-5.49,3.79-8.35,3.25q-2.34.82-2.14-1.58a12,12,0,0,1-.07-3.2c.72-8.12,6.16-17.06,13.19-21.09l-4.2,2c5.07-2.29,11.66-2.18,14.3,3.48,0,0,4.54-2.1,4.51-2.15Z"/><path class="cls-1" d="M772.92,552.91a142.06,142.06,0,0,0-6.67,41.83c0-.7,4.51-1.38,4.51-2.15a142.06,142.06,0,0,1,6.67-41.83c-.34,1.06-4.16,1-4.51,2.15Z"/><path class="cls-1" d="M774.29,550c2.29-3.39,6.83-9.7,11.61-8.24,5.24,1.6,5.34,8.12,4.39,12.47a36.31,36.31,0,0,1-17.07,23.06c1.42-.85,3.09-1.29,4.51-2.15a36.88,36.88,0,0,0,14-14.77c2.65-5.16,6-14,1.33-19-6.42-6.74-20.13,6-23.33,10.74.79-1.17,3.7-.94,4.51-2.15Z"/><path class="cls-1" d="M823.09,546.43c-4.35-3.65-10.26-.37-14.53,2a21.87,21.87,0,0,0-11,21.72l.67-.3c11.07-5.15,19.79-12.25,23.62-24.36-.34,1.08-4,1.07-4.51,2.15-3.53,7.06-3.37,20.77,8.1,17.39,4.75-1.4,9.18-4.48,12.8-7.68-1.19,1.06-3.31,1.08-4.51,2.15-3.55,3.15-8.45,6.06-12.43,1.45-3.52-4.08-1.56-11.2.56-15.45l-4.51,2.15A37,37,0,0,1,809.89,561a36.25,36.25,0,0,1-5.38,5c-.2.15-2.87,2.23-3,2.07.28.26.42-4.2.43-4.29.42-6.83,8.05-22.48,16.68-15.24.56.47,4-2.57,4.51-2.15Z"/><path class="cls-1" d="M846.9,546.63c-5,9-2.79,19.78-7.47,28.84l4.51-2.15A52.56,52.56,0,0,1,849,555c2.64-5.38,6.76-12.36,12.31-15.14l-4.21,2c3-.81,5.95,0,6.53,3.37-.07-.41,4.6-1.67,4.51-2.15-1.28-7.45-11.48-1.66-14.59,1.25-8.44,7.86-13,19.86-14.11,31.13.08-.81,4.08-1.31,4.51-2.15,4.68-9.06,2.5-19.88,7.47-28.84-.65,1.17-3.85.94-4.51,2.15Z"/><path class="cls-1" d="M889.71,541c-3.8-1-7.72,1-11,3-3.07,1.84-16.27,17.26-10.11,20.41,2.42,1.24,8.07-2.64,10-4a41.63,41.63,0,0,0,14.87-21.62c-.32,1.06-4.14,1-4.51,2.15-1.5,4.46-3.24,9.79-.69,14.24s7.56,4.49,12,3.84c3.08-.45,10.09-2.18,10.85-5.75-.2,1-4.3,1.13-4.51,2.15a3.15,3.15,0,0,1-1.88,2.5l4.43-2.12c-4.41,1.72-11.35,2.62-15-1-4.32-4.32-2.32-10.93-.64-15.95l-4.51,2.15c-2.83,9.35-8.75,18.18-17.29,23.22l4.51-2.15c-6.53,2.41-3.68-5.59-2.22-8.64,2.26-4.72,5.41-9.22,10-11.88l-4.43,2.12a7.32,7.32,0,0,1,5.69-.41c1.24.34,3.32-2.48,4.51-2.15Z"/><path class="cls-1" d="M946.94,534c-9.93-1.1-25.46,6.4-26.59,17.44-.8,7.76,5.95,5.53,10,3.31,6.94-3.76,12.56-10.38,16.8-16.91-.61.94-3.5,1.55-4.51,2.15-10.08,5.89-9.08,19.43-9.65,29.53q-.52,9.27-1,18.53c-.32,5.59-.7,11.36-5.82,14.65l4.43-2.12c-9.32,3.95-13.55-9.07-13.88-15.93a30.75,30.75,0,0,1,8.44-22.52c-1.05,1.12-3.44,1-4.51,2.15-7.39,7.89-10.52,19.44-7.13,29.87,1.42,4.35,4.92,9.89,10.23,9.31,2.09-.23,4.44-1.6,6.28-2.58,3.74-2,5.37-5.37,6-9.47,1-6.58.91-13.49,1.28-20.13.61-10.91-1.15-27,9.87-33.44L942.69,540a55.68,55.68,0,0,1-16.15,16.58l3.85-1.85c-3.29,1.51-5.59-1.58-5.63-4.56s1.64-5.9,3.3-8.14c3.65-4.91,8.41-6.54,14.37-5.87,1.43.16,3.13-2.3,4.51-2.15Z"/><path class="cls-1" d="M965.7,534.13l1-.62-4.43,2.12c5.41-2.14,10.71,2,11.06,7.52.42,6.56-4.8,11.91-10.36,14.41-6.87,3.1-10.18-1.51-9.61-8,.6-6.8,3-13.27,9.36-16.56l-4.44,2.1a14.7,14.7,0,0,1,4.15-.94c1.57-.14,3-2,4.51-2.15-7.17.64-14.34,5.78-16.68,12.53-1.4,4.05-3.62,12.83,1.14,15.54,3.56,2,7.7-.26,11-1.8,7.42-3.51,18.61-10,14.91-20-2.85-7.74-10.9-5.3-16.08-2,1.38-.89,3.12-1.25,4.51-2.15Z"/><path class="cls-1" d="M988.78,531.88c-5.74,9.25-4.46,20.7-9,30.41l4.51-2.15c-1.83-2.22,1.13-6.64,2.11-8.83q2.36-5.29,5-10.44c3-5.8,6.12-13.41,12-16.83l-4.51,2.15c2.22-.85,1.56,1.35,1.79,3.31l.66,5.74c.35,3.05.55,6.18,1.08,9.2,1,5.69,5,9.42,11,8.53,6.58-1,12.66-6,15.87-11.48-.68,1.17-3.81.94-4.51,2.15-1.83,3.14-4.17,7.2-8.17,7.29s-7.58-1.86-9-5.62c-1.72-4.53-1.55-10.34-2.1-15.1l-.44-3.83c-.17-1.49.15-2.47-1-2.61a6.8,6.8,0,0,0-1.8.77c-5.51,2.47-8.54,6.17-11.55,11.43q-3.77,6.57-7,13.43c-1.33,2.81-6.27,10.09-4,12.88a28.58,28.58,0,0,0,4.51-2.15c4.56-9.71,3.28-21.16,9-30.41-.73,1.17-3.76.94-4.51,2.15Z"/><path class="cls-1" d="M1047.86,554.68c3.26,9.09-7.31,20.46-13.46,26,1.17-1.06,3.32-1.07,4.51-2.15,6.15-5.57,16.72-17,13.46-26,0,.12-4.58,2-4.51,2.15Z"/><path class="cls-1" d="M1118.47,534.42c5.26-10.24,13.25-21.25,23.44-27.08l-4.51,2.15c12.49-4.39,1.38,25.55.26,29.35q-6.34,21.64-13.7,43l4.51-2.15a223.56,223.56,0,0,1,13.18-40.89c4.71-10.85,10.3-26,21.7-31.56L1159.5,509a149.38,149.38,0,0,1-2.72,43.32c.21-1,4.13-1.12,4.51-2.15,6.36-17.08,13.14-34.58,26.76-47.29l-4.51,2.15c3.67,5.3,0,12.51-1.8,17.91-2.3,7-4.68,13.93-6.64,21a113.29,113.29,0,0,0-4,21.33c-.34,4.32-2.13,15.59,3.72,17.11,6.33,1.65,15.52-7.27,19.05-10.87,9.45-9.65,16.67-21.28,23-33.12l-.08,0c-6.36,2.82-12.08,6-16.84,11.28-3.52,3.88-17.08,21-9.12,25.4.34.19,4.22-1.78,4.51-2.15a158.32,158.32,0,0,0,21.53-34.57c-.52,1.13-3.75,1.07-4.51,2.15a31.84,31.84,0,0,0-5.62,24.17c.54,3,1.32,7.25,5.17,6.57a14.27,14.27,0,0,0,3.41-1.6c5.31-2.73,9.17-8.93,12.16-13.94a70.37,70.37,0,0,0,8.84-24.14l-4.51,2.15a33.17,33.17,0,0,0,18.85-9L1246.1,527c-6.17,7.08-11.91,16.63-12.81,26.2-.41,4.36,1.42,8.6,6.52,7.49a27.18,27.18,0,0,0,5.78-2.48c7.28-3.57,12.48-9.31,17.51-15.53,6.08-7.52,12.48-16.74,22.93-17.38l4.51-2.15c-7.88,2-16.24,6.34-21.56,12.51-3.85,4.47-7.32,10.69-7.1,16.78.25,6.72,5.59,9.42,11.54,7.06,9-3.56,15.64-10.59,22.08-17.61a181,181,0,0,0,26-36.7c-.63,1.17-3.71,1-4.51,2.15-15.44,21.75-25.08,46.67-33.47,71.81l4.51-2.15c4.31-13,9.39-24.72,18.39-35.25a50.51,50.51,0,0,1,6.84-6.74c.79-.63,3.74-3.32,4.79-2.92.46.17.31,4.71.32,5.07.06,7.47-2,14.41-3.2,21.71-.66,4.15-2.51,16.24,5,15.14,2.26-.33,5.09-2,7-3.1,4.94-2.92,8.56-8.66,11.49-13.46a74,74,0,0,0,8.25-19.5c-.27,1-4.23,1.08-4.51,2.15a74.44,74.44,0,0,1-7.41,18.1c-3,5.22-7.21,12.33-12.82,15.08l3.86-1.82c-12.14,3.6-4.9-21-4-26.06a57.89,57.89,0,0,0,.87-8.66q.05-2.16-.08-4.32c-.12-2,.43-2.34-1.55-2.06s-4.22,1.84-6,2.71c-17.41,8.63-26,28.72-31.73,46.06.35-1.07,4.14-1,4.51-2.15,8.38-25.14,18-50.06,33.47-71.81L1317,507.3a181.73,181.73,0,0,1-18.64,28.16q-5.18,6.41-10.94,12.32c-4.12,4.23-8.38,8.88-13.73,11.54l4.21-2c-10.58,4-13.06-6.68-10-14.6s9.68-15.35,18.11-17.46c1.47-.37,3-2.06,4.51-2.15-16.07,1-25.93,14.91-35.53,26-2.72,3.13-6.31,7.6-10.26,9.19-4.75,1.92-7.24-2.48-7-6.62.51-9.7,6.69-19.75,12.88-26.86-1,1.14-3.42,1.06-4.51,2.15a14.64,14.64,0,0,1-9.82,4.68c-.55.06-4.44,1.74-4.51,2.15a70.62,70.62,0,0,1-6.87,20.61c-3,5.8-7.32,13.41-13,16.91l4.51-2.15c-5.82.8-5.81-9.9-5.61-13.71a32.13,32.13,0,0,1,6.07-17l-4.51,2.15a158.33,158.33,0,0,1-21.53,34.57l4.51-2.15c-5.65-3.11.2-12.34,2.37-16.07,3.31-5.71,8.11-12.54,14.08-15.76,2.73-1.47-.19,1-1,2.27-1,1.63-1.9,3.39-2.87,5.06-1.86,3.18-3.81,6.3-5.88,9.35A107.66,107.66,0,0,1,1186.95,576c-2,1.91-4.52,5.08-7.67,4.26s-3.65-4.33-3.84-7.19a85.56,85.56,0,0,1,2.37-24.19c1.88-8.34,4.59-16.47,7.28-24.58,2-6.06,7.11-15.38,3-21.4a37.54,37.54,0,0,0-4.51,2.15c-13.62,12.71-20.4,30.21-26.76,47.29l4.51-2.15a149.38,149.38,0,0,0,2.72-43.32,32.88,32.88,0,0,1-3.86,1.82c-11.33,5.5-16.6,18-21.55,28.94A223.23,223.23,0,0,0,1124,581.81c.22-1,4.16-1.11,4.51-2.15q6.4-18.6,12.06-37.45,2.75-9.19,5.32-18.44c1.14-4.12,3.88-10.36,1.62-14.62-2.5-4.72-9.22-.44-12.3,1.77-9,6.5-16.18,15.82-21.22,25.65.59-1.16,3.9-1,4.51-2.15Z"/><path class="cls-1" d="M1385.17,523.51c4.16-4.15,8.65-7.05,14.49-8.2,4.83-.95,9.76-.52,8.84,5.69-1.45,9.88-9.14,19.82-14.53,27.92-2.92,4.38-5.89,8.74-8.62,13.25-1.17,1.94-3.71,5-4.06,7.23l-.74,1.48,2.72-.56q2.26-.48,4.52-1A196.44,196.44,0,0,0,1421.15,558c1.38-.6,3.26-1.61,4.35-2.08a198.08,198.08,0,0,1-22.47,8.33q-4.88,1.47-9.83,2.67-2.7.66-5.42,1.24l-2.72.56.74-1.48c.43-2.69,3.49-6.32,4.93-8.64,1.75-2.83,3.59-5.6,5.44-8.37,3.53-5.29,7.11-10.55,10.24-16.1,2.66-4.71,6.69-11,6.73-16.62.06-7.08-8.49-4.72-12.77-3.38a49.11,49.11,0,0,0-19.72,11.52c1.1-1.1,3.39-1,4.51-2.15Z"/><path class="cls-1" d="M1428,526.87c4.95-2.7,12.84-3.65,16.34,1.94,4.09,6.52-2.07,13.51-6.92,17.3-5.55,4.35-10.86,3.21-13-3.82-1.62-5.38-.87-12.23,3.74-15.87-1.27,1-3.23,1.14-4.51,2.15-5.71,4.52-6.89,18.93,1.06,22.18,4.8,2,12.89-3.53,16.53-6.25,3.94-2.93,8.21-7,8.76-12.14.52-4.94-2.67-8.72-7.42-9.63-6.39-1.22-13.52,3.23-19,6.2,1-.57,3-1.33,4.36-2.06Z"/><path class="cls-1" d="M1464.94,516.67a114.81,114.81,0,0,0-11,43.38c0-.76,4.47-1.32,4.51-2.15a114.81,114.81,0,0,1,11-43.38c-.55,1.15-3.95,1-4.51,2.15Z"/><path class="cls-1" d="M1484.26,510.4a43.09,43.09,0,0,1,13.45-2.3c2.94,0,9.81-.31,11.73,2.53,2.22,3.28-2.83,7.91-4.68,10.1-3,3.57-6.24,7-9.45,10.36-6.27,6.64-12.59,13.32-17.4,21.13a54.45,54.45,0,0,0-5.64,12c-.3,1-2.12,5.62-1.52,6.44,1,1.32,3.49.44,4.65.07,4.58-1.48,9-3.92,13.36-6,6.35-3.12,15.76-6.85,20-12.72,5.09-7-2.14-16-6.56-21.3-2.84-3.42-13.28-12.93-10.15-17.87l-4.51,2.15.79-.29c1.56-.57,3-1.58,4.51-2.15-2.09.76-5.62,1.62-5.9,4.1-.35,3.1,3.33,7.17,5.07,9.42,2.1,2.72,4.44,5.25,6.61,7.92,4.17,5.15,10.4,13.6,5.62,20.17-2.36,3.23-6.57,5.3-9.93,7.28a101.2,101.2,0,0,1-12.13,6.26c-1.24.52-4.77,2.41-6.35,1.14-1.82-1.45,1.76-9.28,2.67-11.36a63.39,63.39,0,0,1,6.19-10.85c4.94-7.09,11-13.27,16.9-19.55,2.95-3.13,16.12-14.31,11.88-19-2.19-2.4-8.34-2.13-11.29-2.12a43.09,43.09,0,0,0-13.45,2.3c-1.57.52-2.95,1.64-4.51,2.15Z"/><path class="cls-1" d="M1578.15,567.33l1.38.92a21.74,21.74,0,0,0,2.26-1.07c-2-5.08-6.63-9.69-11.78-5.5-3.55,2.89-.23,9.79.91,13.18a105.43,105.43,0,0,0,7.91,17.66c0,.06,2.24-1.1,2.26-1.07a105.58,105.58,0,0,1-7.33-16c-1.06-3-5.68-12.82-1.3-14.92l-1.43.67c4.81-.79,7,3.14,8.51,7.06l2.26-1.07-1.38-.92c-.37-.25-1.92,1.3-2.26,1.07Z"/><path class="cls-1" d="M1581.93,565.94l6.88-5.74-2.26,1.07c2.58,1.63-.79,12.71-1.33,15.58a37.86,37.86,0,0,1-6.39,15.67c.42-.58,1.82-.47,2.26-1.07a37.81,37.81,0,0,0,6.39-15.67c.57-3,4-13.92,1.33-15.58a8.52,8.52,0,0,0-2.26,1.07l-6.88,5.74c.62-.51,1.63-.55,2.26-1.07Z"/></svg>